<svg xmlns="http://www.w3.org/2000/svg" xmlns:xlink="http://www.w3.org/1999/xlink" enable-background="new 0 0 32 32" viewBox="0 0 32 32" id="bike"><defs><linearGradient id="a"><stop offset="0" stop-color="#000092"></stop><stop offset="1" stop-color="#ff00f3"></stop></linearGradient><linearGradient id="b" x1="2.5" x2="26.096" y1="16.001" y2="16.001" gradientUnits="userSpaceOnUse" xlink:href="#a"></linearGradient></defs><path fill="url(#b)" d="M 20.878906 7.5175781 C 20.780156 7.5423281 20.688141 7.5962344 20.619141 7.6777344 C 20.481141 7.8397344 20.460359 8.0728594 20.568359 8.2558594 L 21.982422 10.650391 C 21.502422 10.553391 21.004 10.501953 20.5 10.501953 C 17.943 10.501953 15.794641 11.778953 15.181641 13.501953 L 11.25 13.501953 L 9.9003906 11.699219 C 9.8053906 11.573219 9.657 11.5 9.5 11.5 L 4 11.5 C 3.98 11.5 3.9643125 11.509719 3.9453125 11.511719 C 3.9113125 11.515719 3.8787031 11.52025 3.8457031 11.53125 C 3.8147031 11.54125 3.7877656 11.554312 3.7597656 11.570312 C 3.7327656 11.585313 3.7075938 11.600094 3.6835938 11.621094 C 3.6555937 11.644094 3.6333281 11.670219 3.6113281 11.699219 C 3.6003281 11.713219 3.5861719 11.723281 3.5761719 11.738281 C 3.5701719 11.748281 3.5694531 11.760484 3.5644531 11.771484 C 3.5484531 11.802484 3.5363438 11.834141 3.5273438 11.869141 C 3.5173437 11.900141 3.5098125 11.929891 3.5078125 11.962891 C 3.5068125 11.975891 3.5 11.987 3.5 12 C 3.5 12.02 3.5097187 12.035687 3.5117188 12.054688 C 3.5157188 12.088688 3.52025 12.120344 3.53125 12.152344 C 3.54125 12.183344 3.5553125 12.212234 3.5703125 12.240234 C 3.5853125 12.267234 3.6010937 12.292406 3.6210938 12.316406 C 3.6440938 12.344406 3.6702188 12.365672 3.6992188 12.388672 C 3.7132187 12.399672 3.7213281 12.415781 3.7363281 12.425781 L 6.2617188 13.986328 L 3.8027344 15.039062 C 3.7137344 15.078062 3.6379844 15.141656 3.5839844 15.222656 L 2.5839844 16.722656 C 2.4309844 16.951656 2.4926562 17.263016 2.7226562 17.416016 C 2.8076562 17.473016 2.904 17.5 3 17.5 C 3.161 17.5 3.3190156 17.422344 3.4160156 17.277344 L 4.3339844 15.900391 L 7.3007812 14.628906 L 10.173828 16.40625 C 10.462828 16.60825 10.722891 16.841797 10.962891 17.091797 L 10.234375 17.595703 C 9.518375 16.920703 8.56 16.5 7.5 16.5 C 5.294 16.5 3.5 18.294 3.5 20.5 C 3.5 22.706 5.294 24.5 7.5 24.5 C 9.706 24.5 11.5 22.706 11.5 20.5 C 11.5 20.461 11.490281 20.423766 11.488281 20.384766 L 12.435547 20.185547 C 12.460547 20.393547 12.474609 20.602453 12.474609 20.814453 L 12.474609 22 C 12.474609 22.827 13.147609 23.5 13.974609 23.5 L 21.017578 23.5 C 21.157578 23.5 21.289766 23.441844 21.384766 23.339844 C 21.478766 23.237844 21.527578 23.101891 21.517578 22.962891 C 21.477578 22.442891 21.504609 21.910812 21.599609 21.382812 C 21.599609 21.379812 21.601563 21.376047 21.601562 21.373047 C 22.002562 23.159047 23.595 24.5 25.5 24.5 C 27.706 24.5 29.5 22.706 29.5 20.5 C 29.5 18.605 28.173344 17.022328 26.402344 16.611328 C 26.472344 16.598328 26.538375 16.574453 26.609375 16.564453 C 27.379375 16.453453 28.143859 16.485156 28.880859 16.660156 C 29.035859 16.699156 29.197359 16.658641 29.318359 16.556641 C 29.439359 16.453641 29.506094 16.300578 29.496094 16.142578 C 29.333094 13.583578 28.022531 11.264531 26.019531 9.7695312 C 25.960531 9.6995312 25.890875 9.6374219 25.796875 9.6074219 C 25.789875 9.6054219 25.782391 9.6074688 25.775391 9.6054688 C 25.231391 9.2274687 24.652484 8.8934844 24.021484 8.6464844 L 21.181641 7.5351562 C 21.082641 7.4966563 20.977656 7.4928281 20.878906 7.5175781 z M 22.166016 8.9941406 L 23.654297 9.5761719 C 24.159297 9.7741719 24.626359 10.037078 25.068359 10.330078 C 24.829359 11.544078 25.241125 12.793922 26.203125 13.669922 C 26.722125 14.142922 27.416828 14.414609 28.173828 14.474609 C 28.281828 14.828609 28.371734 15.189547 28.427734 15.560547 C 27.781734 15.474547 27.124797 15.480219 26.466797 15.574219 C 23.544797 15.992219 21.137234 18.308078 20.615234 21.205078 C 20.538234 21.637078 20.5 22.07 20.5 22.5 L 13.974609 22.5 C 13.699609 22.5 13.474609 22.275 13.474609 22 L 13.474609 20.814453 C 13.474609 20.382453 13.420937 19.958969 13.335938 19.542969 C 13.333937 19.523969 13.339937 19.505328 13.335938 19.486328 C 13.332937 19.471328 13.322359 19.461266 13.318359 19.447266 C 13.117359 18.537266 12.716437 17.686312 12.148438 16.945312 C 12.139437 16.928313 12.137953 16.910531 12.126953 16.894531 C 12.106953 16.866531 12.080641 16.849172 12.056641 16.826172 C 11.677641 16.355172 11.235609 15.928266 10.724609 15.572266 L 5.7578125 12.5 L 9.25 12.5 L 10.599609 14.300781 C 10.694609 14.426781 10.843 14.5 11 14.5 L 15 14.5 C 15 14.776 15.224 15 15.5 15 C 15.776 15 16 14.776 16 14.5 C 16 12.846 18.019 11.5 20.5 11.5 C 21.341 11.5 22.162047 11.658031 22.873047 11.957031 C 22.883047 11.961031 22.893344 11.959891 22.902344 11.962891 C 22.940344 11.975891 22.978578 11.982328 23.017578 11.986328 C 23.043578 11.988328 23.066797 11.992234 23.091797 11.990234 C 23.129797 11.988234 23.164172 11.97975 23.201172 11.96875 C 23.227172 11.96075 23.252344 11.953406 23.277344 11.941406 C 23.290344 11.935406 23.305359 11.935734 23.318359 11.927734 C 23.338359 11.915734 23.349187 11.896813 23.367188 11.882812 C 23.391188 11.864812 23.413594 11.845266 23.433594 11.822266 C 23.457594 11.794266 23.477141 11.766375 23.494141 11.734375 C 23.503141 11.718375 23.518391 11.7055 23.525391 11.6875 C 23.530391 11.6765 23.52725 11.665297 23.53125 11.654297 C 23.54225 11.623297 23.546781 11.590594 23.550781 11.558594 C 23.555781 11.524594 23.559641 11.491984 23.556641 11.458984 C 23.554641 11.432984 23.548969 11.408812 23.542969 11.382812 C 23.533969 11.343813 23.521906 11.305531 23.503906 11.269531 C 23.499906 11.260531 23.499141 11.252141 23.494141 11.244141 L 22.166016 8.9941406 z M 26.013672 11.060547 C 26.735672 11.720547 27.320141 12.511625 27.744141 13.390625 C 27.415141 13.296625 27.118859 13.145688 26.880859 12.929688 C 26.325859 12.425688 26.031672 11.752547 26.013672 11.060547 z M 7.5 17.5 C 8.217 17.5 8.8677656 17.763547 9.3847656 18.185547 L 8.0527344 19.107422 C 7.8807344 19.039422 7.695 19 7.5 19 C 6.673 19 6 19.673 6 20.5 C 6 21.327 6.673 22 7.5 22 C 8.18 22 8.7505938 21.541922 8.9335938 20.919922 L 10.490234 20.59375 C 10.439234 22.20375 9.122 23.5 7.5 23.5 C 5.846 23.5 4.5 22.154 4.5 20.5 C 4.5 18.846 5.846 17.5 7.5 17.5 z M 25.5 17.5 C 27.154 17.5 28.5 18.846 28.5 20.5 C 28.5 22.154 27.154 23.5 25.5 23.5 C 23.846 23.5 22.5 22.154 22.5 20.5 C 22.5 19.819 22.736141 19.197359 23.119141 18.693359 L 24.03125 20.193359 C 24.01025 20.292359 24 20.395 24 20.5 C 24 21.327 24.673 22 25.5 22 C 26.327 22 27 21.327 27 20.5 C 27 19.813 26.532391 19.237547 25.900391 19.060547 L 25.488281 17.501953 C 25.492281 17.501953 25.496 17.5 25.5 17.5 z M 24.503906 17.683594 L 24.886719 19.134766 C 24.800719 19.172766 24.719578 19.219437 24.642578 19.273438 L 23.863281 17.992188 C 24.060281 17.863187 24.277906 17.763594 24.503906 17.683594 z M 11.589844 17.873047 C 11.860844 18.287047 12.07075 18.737937 12.21875 19.210938 L 11.326172 19.396484 C 11.220172 19.030484 11.073047 18.684141 10.873047 18.369141 L 11.589844 17.873047 z M 10.050781 18.941406 C 10.176781 19.146406 10.273656 19.367562 10.347656 19.601562 L 8.8789062 19.910156 C 8.8619063 19.870156 8.8374063 19.834875 8.8164062 19.796875 L 10.050781 18.941406 z M 7.5 20 C 7.775 20 8 20.225 8 20.5 C 8 20.775 7.775 21 7.5 21 C 7.225 21 7 20.775 7 20.5 C 7 20.225 7.225 20 7.5 20 z M 25.5 20 C 25.775 20 26 20.225 26 20.5 C 26 20.775 25.775 21 25.5 21 C 25.225 21 25 20.775 25 20.5 C 25 20.225 25.225 20 25.5 20 z M 15 20.5 C 14.724 20.5 14.5 20.724 14.5 21 C 14.5 21.276 14.724 21.5 15 21.5 L 17 21.5 C 17.276 21.5 17.5 21.276 17.5 21 C 17.5 20.724 17.276 20.5 17 20.5 L 15 20.5 z "></path></svg>